# xmcd
#
# Track frame offsets:
#	150
#	16005
#	50876
#	72082
#	103542
#	169542
#	190554
#
# Disc length: 3023 seconds
#
# Revision: 1
# Processed by: cddbd v1.5.2PL0 Copyright (c) Steve Scherf et al.
# Submitted via: audiograbber 1.83.01
#
DISCID=4e0bcd07
DTITLE=Grateful Dead - 72-07-18 Roosevelt Stadium, Jersey City NJ
DYEAR=1900
DGENRE=
TTITLE0=Beat It On Down The Line
TTITLE1=Stella Blue
TTITLE2=El Paso
TTITLE3=Casey Jones
TTITLE4=Playing In The Band
TTITLE5=Brown Eyed Women
TTITLE6=Tennessee Jed
EXTD=
EXTT0=
EXTT1=
EXTT2=
EXTT3=
EXTT4=
EXTT5=
EXTT6=
PLAYORDER=
